# xmcd
#
# Track frame offsets: 
#        150
#        21759
#        44345
#        64746
#        75924
#        93939
#        111380
#        135580
#        151280
#        168379
#        192594
#        214910
#        238084
#
# Disc length: 3356 seconds
#
# Revision: 0
# Processed by: cddbd v1.5.2PL0 Copyright (c) Steve Scherf et al.
# Submitted via: ExactAudioCopy v1.0b1
#
DISCID=ac0d1a0d
DTITLE=Pete Alderton - Cover My Blues
DYEAR=2009
DGENRE=Blues
TTITLE0=Walking Blues
TTITLE1=Help Me
TTITLE2=Georgia On My Mind
TTITLE3=Don't Give A Damn
TTITLE4=Fever
TTITLE5=Ain't No Sunshine
TTITLE6=Little Red Rooster
TTITLE7=Running For Cover My Blues
TTITLE8=Summertime feat. Michel Sajawy
TTITLE9=I'm Your Hoochie Coochie Man
TTITLE10=Cold Turkey
TTITLE11=Cover My Blues
TTITLE12=Grinning In Your Face
EXTD=
EXTT0=
EXTT1=
EXTT2=
EXTT3=
EXTT4=
EXTT5=
EXTT6=
EXTT7=
EXTT8=
EXTT9=
EXTT10=
EXTT11=
EXTT12=
PLAYORDER=
